<svg width="67" height="68" viewBox="0 0 67 68" fill="none" xmlns="http://www.w3.org/2000/svg">
<path d="M0 61.9165H39.0833V67.4998H0V61.9165Z" fill="#424BB3"/>
<path d="M33.4999 56.2878C33.4999 55.5474 33.2058 54.8373 32.6823 54.3138C32.1587 53.7902 31.4486 53.4961 30.7083 53.4961H8.37492C7.63452 53.4961 6.92445 53.7902 6.40091 54.3138C5.87737 54.8373 5.58325 55.5474 5.58325 56.2878V59.1248H33.4999V56.2878Z" fill="#424BB3"/>
<path d="M37.9847 33.4635C36.684 34.8498 35.5932 36.4191 34.7471 38.1214L57.7253 61.0996C58.2488 61.623 58.9587 61.917 59.699 61.917C60.4392 61.917 61.1492 61.623 61.6727 61.0996L65.6208 57.1515C65.8801 56.8923 66.0857 56.5845 66.226 56.2458C66.3663 55.9071 66.4385 55.544 66.4385 55.1774C66.4385 54.8108 66.3663 54.4478 66.226 54.1091C66.0857 53.7704 65.8801 53.4626 65.6208 53.2034L42.6426 30.2314C40.9373 31.0701 39.3672 32.1596 37.9847 33.4635Z" fill="#3FAD79"/>
<path d="M24.1667 19.6454C22.0555 21.6046 19.6117 23.1713 16.9502 24.2719L31.3789 38.7007C32.4894 36.0437 34.0577 33.6023 36.0124 31.4877C38.1237 29.5286 40.5674 27.9617 43.2289 26.8605L28.7994 12.4346C27.6886 15.0905 26.1206 17.5311 24.1667 19.6454Z" fill="#3FAD79"/>
<path d="M34.0322 1.88356L30.0848 5.83098C28.9947 6.92103 28.9947 8.68835 30.0848 9.7784L45.8745 25.5681C46.9645 26.6581 48.7318 26.6581 49.8219 25.5681L53.7693 21.6206C54.8593 20.5306 54.8593 18.7633 53.7693 17.6732L37.9796 1.88356C36.8896 0.793513 35.1223 0.793514 34.0322 1.88356Z" fill="#3FAD79"/>
<path d="M10.3442 25.5667L6.3968 29.5141C5.30675 30.6041 5.30676 32.3715 6.3968 33.4615L22.1865 49.2512C23.2765 50.3412 25.0438 50.3412 26.1339 49.2512L30.0813 45.3038C31.1714 44.2137 31.1714 42.4464 30.0813 41.3563L14.2916 25.5667C13.2016 24.4766 11.4343 24.4766 10.3442 25.5667Z" fill="#3FAD79"/>
</svg>
