<svg width="231" height="43" viewBox="0 0 231 43" fill="none" xmlns="http://www.w3.org/2000/svg">
<g clip-path="url(#clip0_4487_622)">
<path d="M90.6673 13.4682C92.7948 10.8604 95.4198 9.17039 98.967 9.20471C102.458 9.23902 105.234 10.4743 107.048 13.6398C107.473 13.4296 107.709 13.0436 108.005 12.7476C111.273 9.44919 115.241 8.57847 119.641 9.565C122.734 10.2556 124.716 12.293 125.694 15.2869C126.131 16.6294 126.333 18.0192 126.333 19.4346C126.333 25.5383 126.333 31.6376 126.333 37.7413C126.333 38.6549 126.324 38.6635 125.466 38.6677C123.304 38.672 121.147 38.672 118.985 38.6677C118.123 38.6677 118.114 38.6592 118.114 37.7498C118.114 32.6756 118.11 27.6014 118.114 22.5272C118.114 21.5578 118.02 20.6142 117.711 19.692C117.072 17.809 115.691 16.7581 113.739 16.668C111.449 16.5608 109.858 17.423 109.013 19.233C108.524 20.2796 108.395 21.3948 108.395 22.5358C108.403 27.4384 108.395 32.3411 108.395 37.2437C108.395 37.4496 108.395 37.6555 108.395 37.8614C108.378 38.6506 108.378 38.6635 107.61 38.6635C105.379 38.672 103.153 38.6635 100.923 38.6635C100.854 38.6635 100.786 38.6549 100.717 38.6635C100.318 38.7021 100.151 38.5219 100.177 38.1273C100.194 37.8871 100.177 37.6469 100.177 37.4067C100.177 32.6756 100.177 27.9446 100.177 23.2135C100.177 22.0811 100.138 20.953 99.7991 19.8593C99.1858 17.8648 97.7746 16.7495 95.7501 16.6595C93.3395 16.5565 91.7139 17.5259 90.9118 19.5333C90.4828 20.6056 90.4056 21.7294 90.4056 22.8661C90.4013 27.6658 90.4056 32.4655 90.4056 37.2652C90.4056 37.471 90.4056 37.6769 90.4056 37.8828C90.3885 38.6506 90.3842 38.6635 89.6035 38.6635C87.3731 38.6677 85.147 38.6635 82.9166 38.6635C82.715 38.6635 82.5048 38.6978 82.3118 38.5734C82.1702 38.2174 82.2346 37.8356 82.2346 37.4625C82.2303 28.5837 82.2346 19.7049 82.2346 10.8261C82.2346 9.50924 82.1745 9.728 83.3197 9.72371C85.4129 9.71084 87.5018 9.71513 89.595 9.72371C90.3885 9.72371 90.3971 9.73657 90.4056 10.4958C90.4185 11.3536 90.4056 12.2115 90.4142 13.0651C90.4142 13.1937 90.4056 13.3396 90.6587 13.4682H90.6673Z" fill="#2F378E"/>
<path d="M130.27 19.7263C130.27 13.8629 130.27 7.99942 130.27 2.13597C130.27 1.89577 130.283 1.65558 130.27 1.41538C130.249 1.02934 130.407 0.840613 130.806 0.862059C131.012 0.874927 131.218 0.862059 131.424 0.862059C140.17 0.862059 148.911 0.862059 157.657 0.862059C158.772 0.862059 158.781 0.681909 158.777 1.9644C158.777 3.74874 158.777 5.52879 158.777 7.31313C158.777 8.26535 158.768 8.26964 157.825 8.26964C151.858 8.26964 145.892 8.26964 139.925 8.26964C138.325 8.26964 138.536 8.06804 138.527 9.71084C138.518 11.4952 138.518 13.2752 138.527 15.0596C138.527 15.8874 138.54 15.9003 139.389 15.9003C144.635 15.9003 149.881 15.9003 155.127 15.9003C156.512 15.9003 156.358 15.7845 156.362 17.0884C156.366 18.8727 156.366 20.6528 156.362 22.4371C156.362 23.3164 156.353 23.325 155.453 23.325C151.305 23.325 147.153 23.325 143.005 23.325C141.804 23.325 140.603 23.3164 139.406 23.325C138.549 23.3336 138.531 23.3422 138.531 24.17C138.523 26.2632 138.523 28.352 138.531 30.4452C138.531 31.2216 138.549 31.2344 139.342 31.2387C143.044 31.243 146.75 31.2387 150.451 31.2387C153.059 31.2387 155.663 31.2344 158.271 31.2387C159.043 31.2387 159.056 31.2559 159.056 32.0408C159.064 33.9624 159.064 35.8797 159.056 37.8013C159.056 38.6291 159.043 38.642 158.198 38.642C154.016 38.6463 149.829 38.642 145.647 38.642C140.951 38.642 136.249 38.642 131.553 38.642C131.313 38.642 131.072 38.6291 130.832 38.642C130.45 38.6635 130.253 38.5133 130.275 38.1101C130.287 37.8699 130.275 37.6297 130.275 37.3895C130.275 31.4918 130.275 25.594 130.275 19.6963L130.27 19.7263Z" fill="#4D9975"/>
<path d="M0.142094 19.782C0.142094 13.85 0.142094 7.91791 0.142094 1.98584C0.142094 0.716213 0.0605975 0.870627 1.22728 0.870627C10.0074 0.870627 18.7876 0.870627 27.5677 0.870627C27.7393 0.870627 27.9109 0.883494 28.0824 0.870627C28.4856 0.832023 28.6272 1.01646 28.6229 1.40679C28.61 2.60778 28.6186 3.80878 28.6186 5.00549C28.6186 5.82903 28.6229 6.65257 28.6186 7.47611C28.6143 8.26534 28.6057 8.27392 27.8551 8.27821C26.9286 8.28679 26.0021 8.27821 25.0757 8.27821C19.9671 8.27821 14.8543 8.27821 9.74579 8.27821C9.50559 8.27821 9.2611 8.30394 9.02519 8.27821C8.49761 8.21387 8.39466 8.48409 8.39895 8.94305C8.41611 10.6588 8.40753 12.3702 8.40753 14.0859C8.40753 14.532 8.4204 14.9781 8.40753 15.4241C8.39466 15.763 8.51476 15.9431 8.87506 15.926C9.11526 15.9131 9.35546 15.926 9.59566 15.926C14.7042 15.926 19.817 15.926 24.9255 15.926C25.1314 15.926 25.3416 15.9474 25.5432 15.926C26.0536 15.8616 26.1866 16.0976 26.1823 16.578C26.1608 18.0878 26.1737 19.5933 26.1737 21.1031C26.1737 21.6865 26.1608 22.2698 26.1737 22.8532C26.1823 23.2049 26.0579 23.3593 25.6976 23.3336C25.4574 23.3164 25.2172 23.3336 24.977 23.3336C19.8685 23.3336 14.7557 23.3336 9.64713 23.3336C9.40693 23.3336 9.16673 23.3464 8.92653 23.3336C8.52334 23.3121 8.39466 23.4966 8.39895 23.8869C8.41611 25.1222 8.40324 26.3575 8.40324 27.5885C8.40324 28.618 8.41611 29.6474 8.39895 30.6725C8.39037 31.11 8.53621 31.2988 8.99087 31.273C9.43696 31.2473 9.88304 31.2687 10.3291 31.2687C16.0896 31.2687 21.8544 31.2687 27.6149 31.2687C27.8551 31.2687 28.0953 31.2816 28.3355 31.2687C28.7215 31.243 28.8888 31.3888 28.8888 31.792C28.876 33.9195 28.876 36.0427 28.8888 38.1702C28.8888 38.582 28.7001 38.7149 28.3226 38.6806C28.1511 38.6677 27.9795 38.6806 27.8079 38.6806C18.9592 38.6806 10.1104 38.6806 1.2616 38.6806C0.0734653 38.6806 0.150672 38.8522 0.150672 37.5954C0.150672 31.6633 0.150672 25.7313 0.150672 19.7992L0.142094 19.782Z" fill="#2F378E"/>
<path d="M70.3104 22.0468C70.6278 18.8985 68.7749 16.7495 65.3477 16.4836C62.5426 16.2691 59.8146 16.6552 57.1681 17.6374C56.2116 17.9934 56.2116 17.9806 55.8813 16.9812C55.3795 15.4542 54.8776 13.9229 54.3672 12.4002C54.2214 11.9627 54.1999 11.6839 54.7489 11.4566C59.6687 9.43631 64.743 8.81866 69.9501 9.89955C74.4324 10.8303 77.229 13.9229 77.9925 18.4438C78.1813 19.5633 78.267 20.6871 78.267 21.8195C78.2756 27.0996 78.267 32.3754 78.267 37.6555C78.267 37.6898 78.267 37.7241 78.267 37.7584C78.2542 38.6592 78.2542 38.6677 77.3835 38.6677C75.5305 38.672 73.6818 38.6677 71.8288 38.6677C71.5543 38.6677 71.2755 38.6377 71.0053 38.672C70.4305 38.7449 70.3062 38.4618 70.3276 37.9557C70.3576 37.2523 70.3362 36.5445 70.3362 35.8926C70.0617 35.7725 69.9759 35.8926 69.8858 35.9869C67.6511 38.2259 64.8974 39.1481 61.7876 39.1653C60.3379 39.1739 58.9224 39.0023 57.5413 38.5348C53.3378 37.1064 51.266 33.5849 51.7121 29.2571C52.1539 24.9807 54.7018 22.3556 59.1841 21.412C62.4611 20.7214 65.7166 20.8501 68.9507 21.7208C69.3754 21.8366 69.7829 22.0425 70.3019 22.0425L70.3104 22.0468ZM70.512 28.1461C70.5178 27.3426 70.1503 26.8165 69.4097 26.5677C68.5947 26.2932 67.7583 26.0959 66.909 26.0101C65.2319 25.8385 63.5548 25.8171 61.9592 26.5033C60.2478 27.2368 59.4629 28.5879 59.6516 30.428C59.8017 31.895 60.9512 33.0102 62.6669 33.3576C64.2197 33.6707 65.7381 33.512 67.205 32.9501C69.3968 32.1137 70.4949 30.4924 70.5077 28.1418L70.512 28.1461Z" fill="#2F378E"/>
<path d="M191.83 38.6678C189.038 38.6678 186.361 38.6506 183.689 38.6806C183.153 38.6849 182.981 38.3503 182.762 38.0115C181.197 35.5966 179.635 33.1775 178.07 30.7583C177.868 30.4495 177.658 30.145 177.414 29.7847C177.075 30.0334 176.933 30.3466 176.757 30.6211C175.17 33.066 173.579 35.5066 172.022 37.9686C171.692 38.4919 171.323 38.6935 170.701 38.6806C168.2 38.6463 165.695 38.6678 163.19 38.6678C163.027 38.2731 163.349 38.0801 163.504 37.8571C166.36 33.7051 169.225 29.5616 172.091 25.4139C172.228 25.2166 172.365 25.0193 172.498 24.822C173.163 23.8397 173.15 24.0671 172.528 23.1534C170.748 20.5498 168.959 17.9505 167.179 15.3512C165.94 13.5412 164.705 11.7354 163.482 9.95105C163.598 9.61219 163.838 9.72371 164.018 9.72371C166.489 9.71513 168.955 9.73658 171.426 9.70227C171.988 9.69369 172.292 9.89528 172.575 10.3499C173.952 12.5589 175.363 14.7507 176.762 16.9469C176.98 17.2943 177.212 17.6331 177.444 17.9891C177.885 17.8476 177.993 17.453 178.186 17.157C179.623 14.9438 181.064 12.7305 182.458 10.4915C182.805 9.93818 183.153 9.68082 183.843 9.69798C186.069 9.74945 188.3 9.71513 190.53 9.71942C190.796 9.71942 191.071 9.6508 191.384 9.82666C191.341 10.2427 191.032 10.5344 190.809 10.8561C188.008 14.9223 185.199 18.98 182.393 23.0419C181.694 24.0542 181.78 23.7883 182.411 24.7104C185.357 29.004 188.326 33.289 191.281 37.5826C191.487 37.8785 191.77 38.1445 191.838 38.672L191.83 38.6678Z" fill="#4D9975"/>
<path d="M41.229 14.9352C41.5893 14.3218 41.9282 13.6956 42.3142 13.1037C43.9956 10.5172 46.3933 9.22615 49.473 9.18755C50.2194 9.17897 50.2365 9.17897 50.2408 9.89957C50.2494 12.3016 50.2279 14.6993 50.258 17.1013C50.2665 17.6717 50.0521 17.7747 49.546 17.7875C48.864 17.8047 48.1734 17.8733 47.5043 18.0149C43.9527 18.7655 42.0955 21.1332 41.3534 24.5389C41.0918 25.7527 41.0274 26.9838 41.0232 28.2191C41.0103 31.406 41.0232 34.5972 41.0146 37.7842C41.0146 38.6677 41.0017 38.672 40.1095 38.672C37.9477 38.672 35.7902 38.6763 33.6284 38.672C32.8607 38.672 32.8435 38.6592 32.8435 37.8699C32.8435 28.7509 32.8435 19.6276 32.8435 10.5086C32.8435 9.74087 32.8607 9.728 33.6456 9.728C35.8417 9.72371 38.0335 9.72371 40.2296 9.728C40.9931 9.728 41.006 9.74086 41.0103 10.5344C41.0189 11.6668 41.0103 12.7991 41.0103 13.9272C41.0103 14.2618 41.0103 14.5963 41.0103 14.9309C41.0789 14.9309 41.1475 14.9395 41.2205 14.9395L41.229 14.9352Z" fill="#2F378E"/>
<path d="M196.089 33.0359C197.14 32.0108 198.238 31.7363 199.491 32.1352C201.048 32.6327 201.974 34.1425 201.931 36.1156C201.893 38.0158 200.906 39.4612 199.315 39.8559C198.427 40.0746 197.552 40.0103 196.75 39.4913C196.561 39.3712 196.432 39.1267 196.051 39.1824C196.051 39.9459 196.029 40.718 196.059 41.4901C196.076 41.9791 195.892 42.1506 195.403 42.142C193.473 42.1034 193.859 42.3308 193.842 40.6751C193.82 38.0758 193.833 35.4765 193.842 32.8772C193.842 32.1437 193.859 32.1394 194.558 32.1223C194.764 32.118 194.97 32.1437 195.171 32.118C195.759 32.0451 196.179 32.1695 196.089 33.0359ZM197.861 33.8208C196.823 33.8294 195.986 34.816 196.008 36.0084C196.025 37.1836 196.805 38.0672 197.839 38.0844C198.911 38.1015 199.756 37.1751 199.761 35.9784C199.761 34.8074 198.89 33.8123 197.861 33.8208Z" fill="#2F378E"/>
<path d="M211.247 36.862C211.342 37.6212 211.827 37.9686 212.496 38.1616C213.019 38.3117 213.508 38.1831 214.005 38.0286C214.357 37.9214 214.58 37.3981 214.971 37.5826C215.395 37.7799 215.738 38.1445 216.073 38.5734C215.078 39.8559 213.727 40.1347 212.238 39.9288C210.81 39.7272 209.776 38.9466 209.236 37.5826C208.309 35.2492 209.54 32.6413 211.831 32.088C214.096 31.539 215.996 32.8 216.433 35.1463C216.485 35.4122 216.498 35.691 216.502 35.9655C216.515 36.7033 216.502 36.7247 215.781 36.7333C214.58 36.7462 213.384 36.7333 212.183 36.7419C211.882 36.7419 211.573 36.6861 211.252 36.8663L211.247 36.862ZM214.267 35.3221C214.083 34.2198 213.581 33.7265 212.719 33.7479C211.848 33.7694 211.342 34.3013 211.235 35.3221H214.271H214.267Z" fill="#2F378E"/>
<path d="M217.6 38.865C217.617 38.582 217.75 38.4275 217.861 38.256C218.389 37.4238 218.389 37.4281 219.307 37.8614C219.869 38.1273 220.452 38.3289 221.087 38.2603C221.409 38.2259 221.718 38.0973 221.76 37.7413C221.803 37.4238 221.529 37.2566 221.271 37.1622C220.598 36.9134 219.899 36.7333 219.247 36.4416C218.033 35.8969 217.591 34.7473 218.067 33.5463C218.385 32.7442 219.011 32.3067 219.822 32.1137C221.014 31.8306 222.121 32.1009 223.193 32.6413C223.502 32.7957 223.601 32.9802 223.408 33.2847C223.3 33.4563 223.184 33.6321 223.107 33.8209C222.91 34.2927 222.657 34.4299 222.177 34.1297C221.679 33.8209 221.108 33.6793 220.508 33.7351C220.255 33.7565 220.028 33.838 219.955 34.1082C219.877 34.387 220.049 34.5715 220.272 34.683C220.547 34.8203 220.834 34.9232 221.121 35.0347C221.567 35.2106 222.022 35.3607 222.455 35.558C223.399 35.9869 223.854 36.7118 223.755 37.7713C223.665 38.7707 223.15 39.4698 222.112 39.7658C220.452 40.2419 218.951 39.8559 217.604 38.865H217.6Z" fill="#2F378E"/>
<path d="M227.886 39.9503C226.856 39.9889 225.938 39.6629 225.063 39.1482C224.703 38.938 224.54 38.7235 224.853 38.3504C224.96 38.2217 225.063 38.0758 225.132 37.9214C225.355 37.4367 225.634 37.3552 226.076 37.6898C226.487 38.0029 226.998 38.1402 227.504 38.2388C227.808 38.2989 228.122 38.3118 228.418 38.1959C228.615 38.1187 228.791 38.0029 228.825 37.7713C228.855 37.544 228.744 37.3595 228.542 37.2737C228.199 37.1236 227.843 36.9992 227.491 36.8663C227.045 36.699 226.569 36.5875 226.149 36.3644C224.686 35.5923 224.536 33.6021 225.84 32.5941C226.895 31.7749 229.396 31.8564 230.408 32.7314C230.566 32.8687 230.605 32.993 230.515 33.1689C230.421 33.3533 230.326 33.5335 230.228 33.7136C229.859 34.3699 229.854 34.3742 229.168 34.0782C228.692 33.8723 228.216 33.7008 227.684 33.7265C227.397 33.7394 227.101 33.7737 227.011 34.0825C226.899 34.4643 227.195 34.6401 227.482 34.7688C227.761 34.8975 228.057 34.9918 228.345 35.0991C228.696 35.232 229.061 35.335 229.4 35.4937C230.429 35.9741 230.918 36.7118 230.854 37.6383C230.777 38.745 230.125 39.517 229.005 39.8344C228.636 39.9417 228.263 39.9417 227.886 39.946V39.9503Z" fill="#2F378E"/>
<path d="M205.822 33.2847C206.328 32.6327 206.765 32.1738 207.439 32.0365C208.108 31.895 208.164 31.9121 208.194 32.5598C208.202 32.7657 208.194 32.9716 208.194 33.1732C208.194 33.8023 207.898 34.204 207.306 34.3785C206.358 34.653 205.817 35.3865 205.77 36.5531C205.736 37.441 205.74 38.3289 205.762 39.2168C205.77 39.6457 205.641 39.8087 205.191 39.8344C203.527 39.9288 203.531 39.946 203.531 38.2646C203.531 36.4545 203.544 34.6401 203.523 32.83C203.518 32.3239 203.638 32.0451 204.2 32.118C204.402 32.1438 204.608 32.118 204.814 32.118C205.408 32.1209 205.744 32.5084 205.822 33.2804V33.2847Z" fill="#2F378E"/>
</g>
<defs>
<clipPath id="clip0_4487_622">
<rect width="230.716" height="41.28" fill="white" transform="translate(0.14209 0.862061)"/>
</clipPath>
</defs>
</svg>
