<svg width="66" height="97" viewBox="0 0 66 97" fill="none" xmlns="http://www.w3.org/2000/svg">
<g style="mix-blend-mode:plus-darker" clip-path="url(#clip0_4402_12513)">
<path fill-rule="evenodd" clip-rule="evenodd" d="M37.1314 61.7621C35.7286 64.5802 34.0265 67.5041 32.3582 70.1928C30.0073 73.9882 25.3552 75.8136 20.9373 74.802C18.7045 74.2857 16.878 73.1535 15.3003 71.571L15.2933 71.5774C15.2729 71.5907 15.2454 71.611 15.2244 71.6306C15.218 71.8501 15.3143 72.0277 15.4113 72.2066C15.4419 72.263 15.4732 72.3201 15.5006 72.3791C16.6081 74.6884 17.7188 76.9978 18.8289 79.3072C20.857 83.5256 22.8863 87.746 24.9004 91.9683C26.4289 95.165 28.9489 96.9606 32.5381 96.9993C36.1547 97.038 38.7818 95.3363 40.364 92.1231C41.2176 90.3897 42.0712 88.6575 42.9248 86.9234C45.5685 81.5563 48.2129 76.1859 50.8611 70.8201C53.1252 66.2311 55.0129 62.508 56.8956 58.7963C58.828 54.9863 60.754 51.187 63.0749 46.4763C63.3001 46.0184 63.5074 45.4812 63.6905 44.8888C65.1604 41.2012 65.977 37.185 65.9987 32.9798C66.095 14.8608 51.3976 0.0951012 33.1722 -3.85009e-05C14.9469 -0.0939097 0.0956732 14.5176 -2.14965e-05 32.6373C-0.0331957 38.9039 1.70334 44.7689 4.74261 49.765C6.3675 53.1088 7.30914 55.0319 9.32 59.0684C9.6779 59.7864 10.0243 60.5114 10.3707 61.2363C11.2339 63.0414 12.0964 64.8466 13.135 66.5603C14.8824 69.4481 17.5019 70.8334 20.9118 70.468C23.9173 70.1471 26.2701 68.7403 27.6353 65.9698C28.8028 63.6028 29.9792 61.2414 31.155 58.88C32.1151 56.9519 33.0759 55.0231 34.0322 53.0905C34.9183 51.3063 35.7911 49.5189 36.6644 47.7303C37.0555 46.9298 37.4459 46.1294 37.8383 45.329V45.322L37.7362 45.2205C37.557 45.3816 37.3783 45.5414 37.1991 45.7089C34.08 48.5954 29.6411 49.3534 25.835 47.8711C20.1373 45.1875 16.2107 39.4043 16.2457 32.7229C16.2942 23.5236 23.8343 16.1052 33.0867 16.1534C42.3398 16.2016 49.8014 23.698 49.7529 32.8967C49.7383 35.7363 49.0091 38.4066 47.7363 40.7401M34.0577 34.5401C31.7189 34.5141 29.733 36.4239 29.7004 38.7453H29.7074C29.6672 41.1618 31.5365 43.1192 33.9161 43.1725C36.399 43.2264 38.3499 41.3642 38.3831 38.9267C38.4099 36.4619 36.5541 34.5737 34.0571 34.5401H34.0577Z" fill="#2FA455"/>
</g>
<defs>
<clipPath id="clip0_4402_12513">
<rect width="66" height="97" fill="white"/>
</clipPath>
</defs>
</svg>
