<svg width="347" height="460" viewBox="0 0 347 460" fill="none" xmlns="http://www.w3.org/2000/svg">
<g style="mix-blend-mode:plus-darker" clip-path="url(#clip0_2547_6433)">
<path fill-rule="evenodd" clip-rule="evenodd" d="M116.489 495.37C105.287 517.973 91.6961 541.425 78.3752 562.989C59.6036 593.431 22.4578 608.072 -12.8185 599.958C-30.6477 595.817 -45.232 586.737 -57.8295 574.044L-57.8856 574.095C-58.0486 574.202 -58.2676 574.364 -58.4357 574.522C-58.4867 576.282 -57.7175 577.707 -56.9432 579.141C-56.6987 579.594 -56.4491 580.052 -56.23 580.525C-47.3867 599.048 -38.518 617.57 -29.6543 636.092C-13.4603 669.927 2.74382 703.778 18.8257 737.643C31.0311 763.283 51.1526 777.684 79.8117 777.995C108.69 778.305 129.667 764.656 142.3 738.884C149.116 724.981 155.932 711.088 162.748 697.179C183.858 654.132 204.973 611.058 226.118 568.021C244.197 531.215 259.27 501.353 274.303 471.583C289.732 441.024 305.111 410.552 323.644 372.769C325.442 369.096 327.097 364.787 328.559 360.036C340.296 330.459 346.816 298.247 346.99 264.519C347.759 119.193 230.402 0.762842 84.8752 -0.000237699C-60.6517 -0.753143 -179.236 116.441 -180 261.772C-180.265 312.033 -166.399 359.074 -142.131 399.146C-129.156 425.966 -121.638 441.39 -105.581 473.765C-102.723 479.524 -99.9573 485.338 -97.1913 491.153C-90.299 505.631 -83.4119 520.11 -75.1188 533.855C-61.1661 557.017 -40.25 568.128 -13.0223 565.197C10.9758 562.623 29.7627 551.34 40.6639 529.119C49.9861 510.133 59.3795 491.194 68.7678 472.254C76.4344 456.789 84.106 441.319 91.742 425.818C98.8176 411.508 105.786 397.172 112.76 382.826C115.883 376.406 119 369.986 122.133 363.566V363.51L121.318 362.696C119.887 363.989 118.46 365.271 117.029 366.614C92.1241 389.765 56.6796 395.845 26.2885 383.956C-19.2064 362.432 -50.5603 316.047 -50.2802 262.458C-49.893 188.674 10.3136 129.174 84.1926 129.56C158.077 129.947 217.657 190.073 217.27 263.852C217.152 286.628 211.33 308.045 201.167 326.76M91.9457 277.033C73.271 276.825 57.4132 292.142 57.1534 310.761H57.2094C56.8885 330.143 71.8141 345.843 90.8149 346.27C110.641 346.702 126.219 331.766 126.483 312.216C126.697 292.447 111.879 277.303 91.9407 277.033H91.9457Z" fill="#2FA455" fill-opacity="0.5"/>
</g>
<defs>
<clipPath id="clip0_2547_6433">
<rect width="527" height="778" fill="white" transform="translate(-180)"/>
</clipPath>
</defs>
</svg>
