<svg width="231" height="42" viewBox="0 0 231 42" fill="none" xmlns="http://www.w3.org/2000/svg">
<g clip-path="url(#clip0_4400_12492)">
<path d="M90.5254 12.6061C92.6529 9.99824 95.2779 8.30827 98.8252 8.34258C102.317 8.3769 105.092 9.61221 106.906 12.7777C107.331 12.5675 107.567 12.1815 107.863 11.8855C111.131 8.58707 115.099 7.71635 119.5 8.70288C122.592 9.39346 124.574 11.4309 125.552 14.4248C125.989 15.7673 126.191 17.157 126.191 18.5725C126.191 24.6761 126.191 30.7755 126.191 36.8791C126.191 37.7928 126.182 37.8013 125.324 37.8056C123.163 37.8099 121.005 37.8099 118.843 37.8056C117.981 37.8056 117.973 37.797 117.973 36.8877C117.973 31.8135 117.968 26.7393 117.973 21.6651C117.973 20.6957 117.878 19.7521 117.569 18.8299C116.93 16.9469 115.549 15.896 113.597 15.8059C111.307 15.6987 109.716 16.5608 108.871 18.3709C108.382 19.4175 108.253 20.5327 108.253 21.6737C108.262 26.5763 108.253 31.4789 108.253 36.3816C108.253 36.5875 108.253 36.7934 108.253 36.9992C108.236 37.7885 108.236 37.8013 107.468 37.8013C105.238 37.8099 103.012 37.8013 100.781 37.8013C100.712 37.8013 100.644 37.7928 100.575 37.8013C100.176 37.8399 100.009 37.6598 100.035 37.2652C100.052 37.025 100.035 36.7848 100.035 36.5446C100.035 31.8135 100.035 27.0824 100.035 22.3514C100.035 21.219 99.9962 20.0909 99.6573 18.9971C99.0439 17.0026 97.6328 15.8874 95.6082 15.7973C93.1976 15.6944 91.572 16.6638 90.7699 18.6712C90.341 19.7435 90.2638 20.8673 90.2638 22.0039C90.2595 26.8036 90.2638 31.6033 90.2638 36.403C90.2638 36.6089 90.2638 36.8148 90.2638 37.0207C90.2466 37.7885 90.2423 37.8013 89.4617 37.8013C87.2313 37.8056 85.0051 37.8013 82.7747 37.8013C82.5731 37.8013 82.3629 37.8356 82.1699 37.7113C82.0284 37.3552 82.0927 36.9735 82.0927 36.6003C82.0884 27.7215 82.0927 18.8427 82.0927 9.96393C82.0927 8.64712 82.0327 8.86587 83.1779 8.86159C85.2711 8.84872 87.3599 8.85301 89.4531 8.86159C90.2466 8.86159 90.2552 8.87445 90.2638 9.63366C90.2767 10.4915 90.2638 11.3494 90.2724 12.2029C90.2724 12.3316 90.2638 12.4774 90.5169 12.6061H90.5254Z" fill="#2F378E"/>
<path d="M130.128 18.8642C130.128 13.0008 130.128 7.13736 130.128 1.27391C130.128 1.03371 130.141 0.793515 130.128 0.553315C130.106 0.16728 130.265 -0.0214479 130.664 -1.47316e-06C130.87 0.0128664 131.076 -1.47316e-06 131.282 -1.47316e-06C140.028 -1.47316e-06 148.769 -1.47316e-06 157.515 -1.47316e-06C158.63 -1.47316e-06 158.639 -0.180151 158.634 1.10234C158.634 2.88668 158.634 4.66673 158.634 6.45107C158.634 7.40329 158.626 7.40758 157.682 7.40758C151.716 7.40758 145.749 7.40758 139.783 7.40758C138.183 7.40758 138.393 7.20598 138.385 8.84878C138.376 10.6331 138.376 12.4132 138.385 14.1975C138.385 15.0253 138.398 15.0382 139.247 15.0382C144.493 15.0382 149.738 15.0382 154.984 15.0382C156.37 15.0382 156.215 14.9224 156.22 16.2263C156.224 18.0107 156.224 19.7907 156.22 21.5751C156.22 22.4544 156.211 22.4629 155.31 22.4629C151.162 22.4629 147.01 22.4629 142.863 22.4629C141.662 22.4629 140.461 22.4544 139.264 22.4629C138.406 22.4715 138.389 22.4801 138.389 23.3079C138.38 25.4011 138.38 27.49 138.389 29.5831C138.389 30.3595 138.406 30.3724 139.2 30.3767C142.901 30.3809 146.607 30.3767 150.309 30.3767C152.917 30.3767 155.52 30.3724 158.128 30.3767C158.9 30.3767 158.913 30.3938 158.913 31.1788C158.922 33.1003 158.922 35.0177 158.913 36.9393C158.913 37.7671 158.9 37.78 158.055 37.78C153.873 37.7842 149.687 37.78 145.505 37.78C140.808 37.78 136.107 37.78 131.41 37.78C131.17 37.78 130.93 37.7671 130.69 37.78C130.308 37.8014 130.111 37.6513 130.132 37.2481C130.145 37.0079 130.132 36.7677 130.132 36.5275C130.132 30.6297 130.132 24.732 130.132 18.8342L130.128 18.8642Z" fill="#4D9975"/>
<path d="M-0.000240279 18.92C-0.000240279 12.9879 -0.000240279 7.05588 -0.000240279 1.12381C-0.000240279 -0.145817 -0.0817365 0.00859649 1.08495 0.00859649C9.8651 0.00859649 18.6452 0.00859649 27.4254 0.00859649C27.597 0.00859649 27.7685 0.0214643 27.9401 0.00859649C28.3433 -0.030007 28.4848 0.154432 28.4806 0.544756C28.4677 1.74575 28.4763 2.94675 28.4763 4.14346C28.4763 4.967 28.4806 5.79054 28.4763 6.61408C28.472 7.40331 28.4634 7.41189 27.7128 7.41618C26.7863 7.42476 25.8598 7.41618 24.9333 7.41618C19.8248 7.41618 14.712 7.41618 9.60345 7.41618C9.36325 7.41618 9.11876 7.44191 8.88285 7.41618C8.35527 7.35184 8.25233 7.62206 8.25662 8.08102C8.27378 9.79673 8.2652 11.5081 8.2652 13.2239C8.2652 13.6699 8.27807 14.116 8.2652 14.5621C8.25233 14.901 8.37243 15.0811 8.73273 15.064C8.97293 15.0511 9.21313 15.064 9.45333 15.064C14.5619 15.064 19.6747 15.064 24.7832 15.064C24.9891 15.064 25.1993 15.0854 25.4009 15.064C25.9113 14.9996 26.0442 15.2355 26.04 15.7159C26.0185 17.2258 26.0314 18.7313 26.0314 20.2411C26.0314 20.8245 26.0185 21.4078 26.0314 21.9911C26.04 22.3429 25.9156 22.4973 25.5553 22.4715C25.3151 22.4544 25.0749 22.4715 24.8347 22.4715C19.7261 22.4715 14.6133 22.4715 9.5048 22.4715C9.2646 22.4715 9.0244 22.4844 8.7842 22.4715C8.38101 22.4501 8.25233 22.6345 8.25662 23.0249C8.27378 24.2602 8.26091 25.4955 8.26091 26.7265C8.26091 27.7559 8.27378 28.7854 8.25662 29.8105C8.24804 30.248 8.39388 30.4367 8.84854 30.411C9.29462 30.3853 9.74071 30.4067 10.1868 30.4067C15.9473 30.4067 21.7121 30.4067 27.4726 30.4067C27.7128 30.4067 27.953 30.4196 28.1932 30.4067C28.5792 30.381 28.7465 30.5268 28.7465 30.93C28.7336 33.0575 28.7336 35.1807 28.7465 37.3082C28.7465 37.7199 28.5578 37.8529 28.1803 37.8186C28.0087 37.8057 27.8372 37.8186 27.6656 37.8186C18.8168 37.8186 9.96804 37.8186 1.11926 37.8186C-0.0688687 37.8186 0.00833828 37.9901 0.00833828 36.7334C0.00833828 30.8013 0.00833828 24.8692 0.00833828 18.9372L-0.000240279 18.92Z" fill="#2F378E"/>
<path d="M70.1681 21.1848C70.4855 18.0365 68.6325 15.8875 65.2054 15.6216C62.4002 15.4071 59.6722 15.7932 57.0258 16.7754C56.0692 17.1314 56.0692 17.1186 55.739 16.1192C55.2371 14.5922 54.7353 13.0609 54.2249 11.5382C54.079 11.1007 54.0576 10.8219 54.6066 10.5946C59.5264 8.57431 64.6006 7.95666 69.8078 9.03756C74.2901 9.96833 77.0867 13.0609 77.8502 17.5818C78.0389 18.7013 78.1247 19.8251 78.1247 20.9575C78.1333 26.2376 78.1247 31.5134 78.1247 36.7935C78.1247 36.8278 78.1247 36.8621 78.1247 36.8964C78.1118 37.7972 78.1118 37.8057 77.2411 37.8057C75.3882 37.81 73.5395 37.8057 71.6865 37.8057C71.412 37.8057 71.1332 37.7757 70.863 37.81C70.2882 37.8829 70.1638 37.5999 70.1853 37.0937C70.2153 36.3903 70.1938 35.6825 70.1938 35.0306C69.9193 34.9105 69.8335 35.0306 69.7435 35.1249C67.5088 37.3639 64.755 38.2861 61.6453 38.3033C60.1955 38.3119 58.7801 38.1403 57.3989 37.6728C53.1954 36.2444 51.1237 32.7229 51.5698 28.3951C52.0116 24.1187 54.5594 21.4936 59.0417 20.55C62.3187 19.8594 65.5743 19.9881 68.8084 20.8588C69.233 20.9746 69.6405 21.1805 70.1595 21.1805L70.1681 21.1848ZM70.3697 27.2841C70.3754 26.4806 70.008 25.9545 69.2674 25.7057C68.4524 25.4312 67.616 25.2339 66.7667 25.1481C65.0896 24.9765 63.4125 24.9551 61.8169 25.6413C60.1055 26.3748 59.3205 27.7259 59.5093 29.566C59.6594 31.033 60.8089 32.1482 62.5246 32.4956C64.0773 32.8087 65.5957 32.65 67.0627 32.0881C69.2545 31.2517 70.3525 29.6304 70.3654 27.2798L70.3697 27.2841Z" fill="#2F378E"/>
<path d="M191.688 37.8057C188.895 37.8057 186.219 37.7885 183.547 37.8185C183.011 37.8228 182.839 37.4883 182.62 37.1494C181.055 34.7345 179.493 32.3154 177.928 29.8962C177.726 29.5874 177.516 29.2829 177.272 28.9226C176.933 29.1713 176.791 29.4845 176.615 29.759C175.028 32.2039 173.437 34.6445 171.88 37.1065C171.55 37.6298 171.181 37.8314 170.559 37.8185C168.058 37.7842 165.553 37.8057 163.048 37.8057C162.885 37.411 163.207 37.218 163.361 36.995C166.218 32.843 169.083 28.6995 171.949 24.5518C172.086 24.3545 172.223 24.1572 172.356 23.9599C173.021 22.9776 173.008 23.205 172.386 22.2913C170.606 19.6878 168.817 17.0885 167.037 14.4892C165.798 12.6791 164.562 10.8733 163.34 9.08895C163.456 8.7501 163.696 8.86162 163.876 8.86162C166.347 8.85304 168.813 8.87449 171.284 8.84018C171.846 8.8316 172.15 9.03319 172.433 9.48786C173.81 11.6968 175.221 13.8887 176.62 16.0848C176.838 16.4322 177.07 16.771 177.302 17.1271C177.743 16.9855 177.851 16.5909 178.044 16.2949C179.481 14.0817 180.922 11.8684 182.316 9.6294C182.663 9.07609 183.011 8.81873 183.701 8.83589C185.927 8.88736 188.158 8.85304 190.388 8.85733C190.654 8.85733 190.929 8.7887 191.242 8.96456C191.199 9.38062 190.89 9.6723 190.667 9.99399C187.866 14.0602 185.057 18.1179 182.251 22.1798C181.552 23.1921 181.638 22.9262 182.269 23.8484C185.215 28.1419 188.183 32.4269 191.139 36.7205C191.345 37.0164 191.628 37.2824 191.696 37.8099L191.688 37.8057Z" fill="#4D9975"/>
<path d="M41.0872 14.0731C41.4475 13.4597 41.7863 12.8335 42.1724 12.2416C43.8538 9.65513 46.2515 8.36406 49.3312 8.32546C50.0775 8.31688 50.0947 8.31688 50.099 9.03748C50.1075 11.4395 50.0861 13.8372 50.1161 16.2392C50.1247 16.8096 49.9102 16.9126 49.4041 16.9255C48.7221 16.9426 48.0315 17.0112 47.3624 17.1528C43.8109 17.9034 41.9536 20.2711 41.2116 23.6768C40.9499 24.8906 40.8856 26.1217 40.8813 27.357C40.8684 30.5439 40.8813 33.7351 40.8727 36.9221C40.8727 37.8057 40.8599 37.8099 39.9677 37.8099C37.8059 37.8099 35.6484 37.8142 33.4866 37.8099C32.7188 37.8099 32.7017 37.7971 32.7017 37.0079C32.7017 27.8888 32.7017 18.7656 32.7017 9.64655C32.7017 8.87877 32.7188 8.86591 33.5038 8.86591C35.6999 8.86162 37.8917 8.86162 40.0878 8.86591C40.8513 8.86591 40.8642 8.87877 40.8684 9.67229C40.877 10.8047 40.8684 11.937 40.8684 13.0651C40.8684 13.3997 40.8684 13.7342 40.8684 14.0688C40.9371 14.0688 41.0057 14.0774 41.0786 14.0774L41.0872 14.0731Z" fill="#2F378E"/>
<path d="M195.947 32.1739C196.998 31.1488 198.096 30.8743 199.348 31.2732C200.905 31.7707 201.832 33.2805 201.789 35.2536C201.75 37.1538 200.764 38.5992 199.173 38.9939C198.285 39.2126 197.41 39.1483 196.608 38.6293C196.419 38.5092 196.29 38.2647 195.908 38.3204C195.908 39.0839 195.887 39.856 195.917 40.6281C195.934 41.1171 195.75 41.2886 195.261 41.28C193.331 41.2414 193.717 41.4688 193.699 39.8131C193.678 37.2138 193.691 34.6145 193.699 32.0152C193.699 31.2817 193.717 31.2775 194.416 31.2603C194.622 31.256 194.828 31.2817 195.029 31.256C195.617 31.1831 196.037 31.3075 195.947 32.1739ZM197.719 32.9588C196.681 32.9674 195.844 33.954 195.866 35.1464C195.883 36.3216 196.663 37.2052 197.697 37.2224C198.769 37.2395 199.614 36.3131 199.619 35.1164C199.619 33.9454 198.748 32.9503 197.719 32.9588Z" fill="#2F378E"/>
<path d="M211.105 35.9999C211.2 36.7591 211.684 37.1065 212.353 37.2996C212.877 37.4497 213.366 37.321 213.863 37.1666C214.215 37.0594 214.438 36.5361 214.828 36.7205C215.253 36.9178 215.596 37.2824 215.931 37.7113C214.935 38.9938 213.584 39.2726 212.096 39.0667C210.668 38.8651 209.634 38.0845 209.093 36.7205C208.167 34.3871 209.398 31.7793 211.688 31.2259C213.953 30.6769 215.853 31.938 216.291 34.2842C216.342 34.5501 216.355 34.8289 216.36 35.1034C216.372 35.8412 216.359 35.8626 215.639 35.8712C214.438 35.8841 213.241 35.8712 212.04 35.8798C211.74 35.8798 211.431 35.824 211.109 36.0042L211.105 35.9999ZM214.125 34.46C213.94 33.3577 213.439 32.8644 212.576 32.8859C211.706 32.9073 211.2 33.4392 211.092 34.46H214.129H214.125Z" fill="#2F378E"/>
<path d="M217.458 38.003C217.475 37.72 217.608 37.5655 217.72 37.394C218.247 36.5618 218.247 36.5661 219.165 36.9994C219.727 37.2653 220.31 37.4669 220.945 37.3983C221.267 37.3639 221.576 37.2353 221.619 36.8793C221.661 36.5618 221.387 36.3946 221.13 36.3002C220.456 36.0514 219.757 35.8713 219.105 35.5796C217.891 35.0349 217.449 33.8853 217.926 32.6843C218.243 31.8822 218.869 31.4447 219.68 31.2517C220.872 30.9686 221.979 31.2389 223.051 31.7793C223.36 31.9337 223.459 32.1182 223.266 32.4227C223.158 32.5943 223.043 32.7701 222.965 32.9589C222.768 33.4307 222.515 33.5679 222.035 33.2677C221.537 32.9589 220.967 32.8173 220.366 32.8731C220.113 32.8945 219.886 32.976 219.813 33.2462C219.736 33.525 219.907 33.7095 220.13 33.821C220.405 33.9583 220.692 34.0612 220.98 34.1727C221.426 34.3486 221.88 34.4987 222.313 34.696C223.257 35.1249 223.712 35.8498 223.613 36.9093C223.523 37.9087 223.008 38.6078 221.97 38.9038C220.31 39.3799 218.809 38.9939 217.462 38.003H217.458Z" fill="#2F378E"/>
<path d="M227.744 39.0882C226.714 39.1268 225.796 38.8008 224.921 38.2861C224.561 38.0759 224.398 37.8615 224.711 37.4883C224.818 37.3596 224.921 37.2138 224.99 37.0594C225.213 36.5747 225.492 36.4932 225.934 36.8277C226.345 37.1409 226.856 37.2781 227.362 37.3768C227.666 37.4368 227.979 37.4497 228.275 37.3339C228.473 37.2567 228.649 37.1409 228.683 36.9092C228.713 36.6819 228.601 36.4975 228.4 36.4117C228.057 36.2616 227.701 36.1372 227.349 36.0042C226.903 35.8369 226.427 35.7254 226.006 35.5024C224.544 34.7303 224.394 32.7401 225.698 31.7321C226.753 30.9128 229.253 30.9943 230.266 31.8693C230.424 32.0066 230.463 32.131 230.373 32.3068C230.279 32.4913 230.184 32.6714 230.086 32.8516C229.717 33.5078 229.712 33.5121 229.026 33.2162C228.55 33.0103 228.074 32.8387 227.542 32.8645C227.255 32.8773 226.959 32.9116 226.869 33.2205C226.757 33.6022 227.053 33.7781 227.34 33.9067C227.619 34.0354 227.915 34.1298 228.203 34.237C228.554 34.37 228.919 34.4729 229.258 34.6316C230.287 35.112 230.776 35.8498 230.712 36.7763C230.635 37.8829 229.983 38.655 228.863 38.9724C228.494 39.0796 228.121 39.0796 227.744 39.0839V39.0882Z" fill="#2F378E"/>
<path d="M205.68 32.4227C206.186 31.7707 206.623 31.3118 207.297 31.1745C207.966 31.033 208.021 31.0501 208.051 31.6978C208.06 31.9037 208.051 32.1096 208.051 32.3112C208.051 32.9403 207.756 33.342 207.164 33.5164C206.216 33.791 205.675 34.5244 205.628 35.6911C205.594 36.579 205.598 37.4669 205.619 38.3547C205.628 38.7837 205.499 38.9467 205.049 38.9724C203.385 39.0668 203.389 39.0839 203.389 37.4025C203.389 35.5925 203.402 33.7781 203.38 31.968C203.376 31.4619 203.496 31.1831 204.058 31.256C204.26 31.2817 204.466 31.256 204.672 31.256C205.266 31.2589 205.602 31.6463 205.68 32.4184V32.4227Z" fill="#2F378E"/>
</g>
<defs>
<clipPath id="clip0_4400_12492">
<rect width="230.716" height="41.28" fill="white"/>
</clipPath>
</defs>
</svg>
