<svg width="20" height="20" viewBox="0 0 20 20" fill="none" xmlns="http://www.w3.org/2000/svg">
<path fill-rule="evenodd" clip-rule="evenodd" d="M6.67987 14.39H12.4969C12.9353 14.39 13.2989 14.05 13.2989 13.64C13.2989 13.23 12.9353 12.9 12.4969 12.9H6.67987C6.24146 12.9 5.87789 13.23 5.87789 13.64C5.87789 14.05 6.24146 14.39 6.67987 14.39ZM10.2941 7.9H6.67987C6.24146 7.9 5.87789 8.24 5.87789 8.65C5.87789 9.06 6.24146 9.39 6.67987 9.39H10.2941C10.7325 9.39 11.0961 9.06 11.0961 8.65C11.0961 8.24 10.7325 7.9 10.2941 7.9ZM17.9252 7.02561C18.1765 7.02292 18.4502 7.02 18.6989 7.02C18.9662 7.02 19.1801 7.22 19.1801 7.47V15.51C19.1801 17.99 17.0308 20 14.3789 20H5.8672C3.087 20 0.820068 17.89 0.820068 15.29V4.51C0.820068 2.03 2.98007 0 5.64264 0H11.3527C11.6308 0 11.8446 0.21 11.8446 0.46V3.68C11.8446 5.51 13.4593 7.01 15.4161 7.02C15.8732 7.02 16.2761 7.02316 16.6288 7.02593C16.9031 7.02809 17.147 7.03 17.3623 7.03C17.5145 7.03 17.7118 7.02789 17.9252 7.02561ZM18.2201 5.566C17.3411 5.569 16.3049 5.566 15.5596 5.559C14.377 5.559 13.4028 4.648 13.4028 3.542V0.906C13.4028 0.475 13.9621 0.261 14.2818 0.572C14.8604 1.13467 15.6556 1.90809 16.4472 2.678C17.2368 3.44607 18.0229 4.21065 18.5868 4.759C18.8991 5.062 18.6702 5.565 18.2201 5.566Z" fill="white"/>
</svg>
