<svg width="51" height="50" viewBox="0 0 51 50" fill="none" xmlns="http://www.w3.org/2000/svg">
<rect x="0.5" width="50" height="50" rx="12" fill="#3FAD79"/>
<path d="M22.7248 16.3969C22.3873 15.5532 21.5702 15 20.6615 15H17.6052C16.4425 15 15.5 15.9423 15.5 17.105C15.5 26.988 23.5118 35 33.3945 35C34.5572 35 35.4995 34.0574 35.4995 32.8947L35.5 29.8377C35.5 28.9291 34.9469 28.1121 34.1033 27.7746L31.174 26.6033C30.4161 26.3001 29.5533 26.4366 28.9263 26.9591L28.1702 27.5897C27.2873 28.3254 25.9882 28.2669 25.1755 27.4542L23.0467 25.3234C22.234 24.5107 22.174 23.2126 22.9097 22.3297L23.5402 21.5737C24.0627 20.9466 24.2003 20.0835 23.8972 19.3257L22.7248 16.3969Z" stroke="white" stroke-width="2" stroke-linecap="round" stroke-linejoin="round"/>
</svg>
