<svg width="24" height="20" viewBox="0 0 24 20" fill="none" xmlns="http://www.w3.org/2000/svg">
<path fill-rule="evenodd" clip-rule="evenodd" d="M21.1205 10.0011C21.1205 10.8824 21.902 11.5994 22.8626 11.5994C23.347 11.5994 23.7401 11.9601 23.7401 12.4045V15.3038C23.7401 17.7556 21.5662 19.75 18.8939 19.75H5.1874C2.51512 19.75 0.340088 17.7556 0.340088 15.3038V12.4045C0.340088 11.9601 0.733208 11.5994 1.21759 11.5994C2.17933 11.5994 2.96089 10.8824 2.96089 10.0011C2.96089 9.14233 2.21092 8.49612 1.21759 8.49612C0.984758 8.49612 0.762458 8.41132 0.597488 8.25996C0.432518 8.10861 0.340088 7.90358 0.340088 7.69104L0.342428 4.69724C0.342428 2.24551 2.51629 0.25 5.18857 0.25H18.8916C21.5639 0.25 23.7389 2.24551 23.7389 4.69724L23.7401 7.59766C23.7401 7.81019 23.6477 8.01629 23.4839 8.16658C23.3189 8.31793 23.0966 8.40273 22.8626 8.40273C21.902 8.40273 21.1205 9.11978 21.1205 10.0011ZM14.6749 10.702L16.0544 9.46972C16.2942 9.25718 16.3773 8.94374 16.2731 8.65391C16.1702 8.36409 15.9011 8.15799 15.5758 8.11612L13.6699 7.86065L12.817 6.27626C12.6707 6.0036 12.3735 5.834 12.0424 5.83293H12.0401C11.7101 5.83293 11.413 6.00253 11.2644 6.27518L10.4114 7.86065L8.50903 8.11505C8.18026 8.15799 7.91116 8.36409 7.80703 8.65391C7.70407 8.94374 7.78714 9.25718 8.02582 9.46972L9.40525 10.702L9.07999 12.4442C9.02383 12.7448 9.15604 13.0432 9.42514 13.2224C9.57724 13.3223 9.75391 13.3738 9.93292 13.3738C10.0698 13.3738 10.2079 13.3427 10.3342 13.2815L12.0401 12.4592L13.7424 13.2793C14.0373 13.4243 14.3871 13.4017 14.655 13.2214C14.9253 13.0432 15.0575 12.7448 15.0014 12.4442L14.6749 10.702Z" fill="#3F3991"/>
</svg>
