<svg width="24" height="25" viewBox="0 0 24 25" fill="none" xmlns="http://www.w3.org/2000/svg">
<path fill-rule="evenodd" clip-rule="evenodd" d="M12.9533 3.44474C16.2808 2.05603 20.1738 4.12179 20.8894 7.6532C21.6087 11.2 18.8159 14.6198 15.1922 14.6198H9.38343V8.8111C9.38343 6.4876 10.8145 4.34106 12.9533 3.44474ZM19.2737 8.82264C19.2737 10.0613 17.3503 10.0613 17.3503 8.82264C17.3503 7.58395 19.2737 7.58395 19.2737 8.82264ZM11.1145 8.82264C11.1145 7.58395 13.0379 7.58395 13.0379 8.82264C13.0379 10.0613 11.1145 10.0613 11.1145 8.82264ZM14.2305 8.8111C14.2305 7.56857 16.1539 7.56857 16.1539 8.8111C16.1539 10.0498 14.2305 10.0498 14.2305 8.8111ZM14.8692 22.3406C14.3075 22.8945 13.4997 23.1215 12.7342 22.9445C6.92927 21.6058 2.39768 17.0742 1.05898 11.2693C0.882022 10.5038 1.10899 9.69598 1.66293 9.13434C2.10532 8.68426 2.58618 8.2688 3.09781 7.89566C3.65945 7.48789 4.47498 7.67254 4.79812 8.28803L5.9791 10.5269C6.36763 11.2616 6.32916 12.1503 5.87908 12.8542L4.8135 14.5122C5.95217 16.4434 7.56015 18.0513 9.49127 19.19L11.1493 18.1244C11.8532 17.6743 12.7419 17.6359 13.4766 18.0244L15.7155 19.2054C16.3271 19.5285 16.5156 20.3479 16.1079 20.9057C15.7347 21.4173 15.3193 21.8982 14.8692 22.3406Z" fill="#FFC96E"/>
<mask id="path-2-outside-1_3768_8852" maskUnits="userSpaceOnUse" x="0" y="0" width="24" height="24" fill="black">
<rect fill="white" width="24" height="24"/>
<path fill-rule="evenodd" clip-rule="evenodd" d="M13.9533 2.43644C17.2808 1.04773 21.1738 3.11349 21.8894 6.6449C22.6087 10.1917 19.8159 13.6115 16.1922 13.6115H10.3834V7.8028C10.3834 5.4793 11.8145 3.33276 13.9533 2.43644ZM20.2737 7.81434C20.2737 9.05302 18.3503 9.05302 18.3503 7.81434C18.3503 6.57565 20.2737 6.57565 20.2737 7.81434ZM12.1145 7.81434C12.1145 6.57565 14.0379 6.57565 14.0379 7.81434C14.0379 9.05302 12.1145 9.05302 12.1145 7.81434ZM15.2305 7.8028C15.2305 6.56027 17.1539 6.56027 17.1539 7.8028C17.1539 9.04148 15.2305 9.04148 15.2305 7.8028ZM15.8692 21.3323C15.3075 21.8862 14.4997 22.1132 13.7342 21.9362C7.92927 20.5975 3.39768 16.0659 2.05898 10.261C1.88202 9.49552 2.10899 8.68768 2.66293 8.12604C3.10532 7.67596 3.58618 7.2605 4.09781 6.88735C4.65945 6.47959 5.47498 6.66424 5.79812 7.27973L6.9791 9.5186C7.36763 10.2533 7.32916 11.142 6.87908 11.8459L5.8135 13.5039C6.95217 15.4351 8.56015 17.043 10.4913 18.1817L12.1493 17.1161C12.8532 16.666 13.7419 16.6276 14.4766 17.0161L16.7155 18.1971C17.3271 18.5202 17.5156 19.3396 17.1079 19.8974C16.7347 20.409 16.3193 20.8899 15.8692 21.3323Z"/>
</mask>
<path d="M21.8894 6.6449L20.7133 6.88319L20.7133 6.88342L21.8894 6.6449ZM13.9533 2.43644L13.4911 1.32901L13.4895 1.32969L13.9533 2.43644ZM10.3834 13.6115H9.18343V14.8115H10.3834V13.6115ZM13.7342 21.9362L14.0044 20.7671L14.0038 20.7669L13.7342 21.9362ZM15.8692 21.3323L15.028 20.4765L15.0265 20.4779L15.8692 21.3323ZM2.05898 10.261L3.22829 9.99138L3.22815 9.99078L2.05898 10.261ZM2.66293 8.12604L3.51729 8.9687L3.51874 8.96722L2.66293 8.12604ZM4.09781 6.88735L3.39279 5.91629L3.3907 5.91782L4.09781 6.88735ZM5.79812 7.27973L4.73564 7.83754L4.73673 7.83961L5.79812 7.27973ZM6.9791 9.5186L5.91771 10.0785L5.91828 10.0796L6.9791 9.5186ZM6.87908 11.8459L7.88857 12.4947L7.89011 12.4923L6.87908 11.8459ZM5.8135 13.5039L4.80401 12.8551L4.40445 13.4768L4.77982 14.1134L5.8135 13.5039ZM10.4913 18.1817L9.88177 19.2154L10.5184 19.5908L11.1401 19.1912L10.4913 18.1817ZM12.1493 17.1161L11.5029 16.1051L11.5005 16.1066L12.1493 17.1161ZM14.4766 17.0161L13.9157 18.0769L13.9167 18.0775L14.4766 17.0161ZM16.7155 18.1971L17.276 17.1361L17.2754 17.1357L16.7155 18.1971ZM17.1079 19.8974L16.1391 19.1892L16.1383 19.1903L17.1079 19.8974ZM23.0655 6.4066C22.1997 2.13374 17.5164 -0.350903 13.4911 1.32902L14.4155 3.54387C17.0452 2.44636 20.148 4.09324 20.7133 6.88319L23.0655 6.4066ZM16.1922 14.8115C20.5747 14.8115 23.9355 10.6964 23.0654 6.40637L20.7133 6.88342C21.2819 9.68697 19.0571 12.4115 16.1922 12.4115V14.8115ZM10.3834 14.8115H16.1922V12.4115H10.3834V14.8115ZM9.18343 7.8028V13.6115H11.5834V7.8028H9.18343ZM13.4895 1.32969C10.9052 2.41267 9.18343 4.99515 9.18343 7.8028H11.5834C11.5834 5.96345 12.7237 4.25285 14.4171 3.54319L13.4895 1.32969ZM19.0737 7.81434C19.0737 7.81107 19.075 7.77624 19.0979 7.72571C19.1207 7.67541 19.1546 7.63228 19.1914 7.60068C19.2586 7.54295 19.3077 7.54335 19.312 7.54335C19.3162 7.54335 19.3653 7.54295 19.4325 7.60068C19.4694 7.63228 19.5032 7.67541 19.526 7.72571C19.5489 7.77624 19.5503 7.81107 19.5503 7.81434H17.1503C17.1503 8.46442 17.4161 9.03257 17.869 9.42152C18.2969 9.78892 18.8268 9.94335 19.312 9.94335C19.7971 9.94335 20.327 9.78892 20.7549 9.42152C21.2079 9.03257 21.4737 8.46442 21.4737 7.81434H19.0737ZM19.5503 7.81434C19.5503 7.81761 19.5489 7.85243 19.526 7.90297C19.5032 7.95326 19.4694 7.99639 19.4325 8.028C19.3653 8.08573 19.3162 8.08532 19.312 8.08532C19.3077 8.08532 19.2586 8.08573 19.1914 8.028C19.1546 7.99639 19.1207 7.95326 19.0979 7.90297C19.075 7.85243 19.0737 7.81761 19.0737 7.81434H21.4737C21.4737 7.16426 21.2079 6.5961 20.7549 6.20716C20.327 5.83976 19.7971 5.68532 19.312 5.68532C18.8268 5.68532 18.2969 5.83976 17.869 6.20716C17.4161 6.5961 17.1503 7.16426 17.1503 7.81434H19.5503ZM13.3145 7.81434C13.3145 7.81761 13.3132 7.85244 13.2903 7.90297C13.2675 7.95326 13.2336 7.99639 13.1968 8.028C13.1296 8.08573 13.0805 8.08532 13.0762 8.08532C13.0719 8.08532 13.0229 8.08573 12.9557 8.028C12.9188 7.99639 12.885 7.95326 12.8622 7.90297C12.8393 7.85244 12.8379 7.81761 12.8379 7.81434H15.2379C15.2379 7.16426 14.9721 6.5961 14.5192 6.20716C14.0913 5.83976 13.5614 5.68532 13.0762 5.68532C12.5911 5.68532 12.0612 5.83976 11.6333 6.20716C11.1803 6.5961 10.9145 7.16426 10.9145 7.81434H13.3145ZM12.8379 7.81434C12.8379 7.81107 12.8393 7.77624 12.8622 7.72571C12.885 7.67541 12.9188 7.63228 12.9557 7.60068C13.0229 7.54295 13.0719 7.54335 13.0762 7.54335C13.0805 7.54335 13.1296 7.54295 13.1968 7.60068C13.2336 7.63228 13.2675 7.67541 13.2903 7.72571C13.3132 7.77624 13.3145 7.81107 13.3145 7.81434H10.9145C10.9145 8.46442 11.1803 9.03257 11.6333 9.42152C12.0612 9.78892 12.5911 9.94335 13.0762 9.94335C13.5614 9.94335 14.0913 9.78892 14.5192 9.42152C14.9721 9.03257 15.2379 8.46442 15.2379 7.81434H12.8379ZM16.4305 7.8028C16.4305 7.8028 16.4304 7.81181 16.4271 7.82799C16.4237 7.84431 16.4175 7.86526 16.4068 7.88889C16.3844 7.93857 16.3508 7.98148 16.3141 8.0131C16.247 8.07095 16.1974 8.0709 16.1922 8.0709C16.1869 8.0709 16.1374 8.07095 16.0702 8.0131C16.0335 7.98148 16 7.93857 15.9775 7.88889C15.9669 7.86526 15.9607 7.84431 15.9573 7.82799C15.9539 7.81181 15.9539 7.8028 15.9539 7.8028H18.3539C18.3539 7.15311 18.0891 6.58453 17.6365 6.19465C17.2087 5.82616 16.6783 5.6709 16.1922 5.6709C15.7061 5.6709 15.1757 5.82616 14.7479 6.19465C14.2952 6.58453 14.0305 7.15311 14.0305 7.8028H16.4305ZM15.9539 7.8028C15.9539 7.79953 15.9552 7.7647 15.9781 7.71417C16.0009 7.66387 16.0348 7.62074 16.0716 7.58914C16.1388 7.53141 16.1879 7.53181 16.1922 7.53181C16.1965 7.53181 16.2455 7.53141 16.3127 7.58914C16.3496 7.62074 16.3834 7.66387 16.4062 7.71417C16.4291 7.7647 16.4305 7.79953 16.4305 7.8028H14.0305C14.0305 8.45288 14.2963 9.02103 14.7492 9.40998C15.1771 9.77738 15.707 9.93181 16.1922 9.93181C16.6773 9.93181 17.2072 9.77738 17.6351 9.40998C18.0881 9.02103 18.3539 8.45288 18.3539 7.8028H15.9539ZM13.4639 23.1054C14.629 23.3747 15.857 23.0298 16.7118 22.1866L15.0265 20.4779C14.7581 20.7427 14.3704 20.8517 14.0044 20.7671L13.4639 23.1054ZM0.889669 10.5307C2.33152 16.7829 7.21235 21.6637 13.4645 23.1055L14.0038 20.7669C8.64619 19.5314 4.46384 15.349 3.22829 9.99138L0.889669 10.5307ZM1.80857 7.28338C0.965429 8.13824 0.620493 9.36623 0.889807 10.5313L3.22815 9.99078C3.14355 9.62481 3.25254 9.23712 3.51729 8.9687L1.80857 7.28338ZM3.3907 5.91782C2.82585 6.32978 2.29529 6.7882 1.80712 7.28486L3.51874 8.96722C3.91535 8.56372 4.3465 8.19122 4.80491 7.85689L3.3907 5.91782ZM6.86059 6.72193C6.19262 5.4496 4.53802 5.08483 3.39279 5.9163L4.80282 7.85841C4.79509 7.86403 4.78576 7.86771 4.77842 7.8691C4.77248 7.87022 4.76974 7.86959 4.76914 7.86945C4.7685 7.8693 4.76436 7.86833 4.75751 7.86322C4.74939 7.85717 4.74099 7.84774 4.73564 7.83753L6.86059 6.72193ZM8.04049 8.95873L6.8595 6.71986L4.73673 7.83961L5.91771 10.0785L8.04049 8.95873ZM7.89011 12.4923C8.57117 11.4271 8.63205 10.0774 8.03991 8.95764L5.91828 10.0796C6.10321 10.4293 6.08716 10.8569 5.86805 11.1996L7.89011 12.4923ZM6.82299 14.1527L7.88857 12.4947L5.86959 11.1972L4.80401 12.8551L6.82299 14.1527ZM11.1008 17.148C9.34468 16.1126 7.88265 14.6505 6.84719 12.8944L4.77982 14.1134C6.02169 16.2196 7.77563 17.9735 9.88177 19.2154L11.1008 17.148ZM11.5005 16.1066L9.84248 17.1722L11.1401 19.1912L12.7981 18.1256L11.5005 16.1066ZM15.0376 15.9553C13.9178 15.3632 12.5681 15.424 11.5029 16.1051L12.7957 18.1272C13.1384 17.9081 13.5659 17.892 13.9157 18.0769L15.0376 15.9553ZM17.2754 17.1357L15.0365 15.9547L13.9167 18.0775L16.1556 19.2585L17.2754 17.1357ZM18.0766 20.6056C18.916 19.4573 18.5352 17.8013 17.276 17.1361L16.1549 19.2581C16.1433 19.252 16.1341 19.2433 16.1289 19.2363C16.1267 19.2333 16.1256 19.2311 16.1251 19.2301C16.1249 19.2296 16.1248 19.2293 16.1247 19.2291C16.1246 19.2289 16.1246 19.2289 16.1246 19.2288C16.1246 19.2288 16.1246 19.2287 16.1246 19.2285C16.1246 19.2284 16.1245 19.228 16.1245 19.2274C16.1245 19.2264 16.1245 19.224 16.1252 19.2203C16.1268 19.2119 16.1312 19.2 16.1391 19.1892L18.0766 20.6056ZM16.7104 22.1881C17.207 21.6999 17.6654 21.1694 18.0774 20.6045L16.1383 19.1903C15.804 19.6487 15.4315 20.0799 15.028 20.4765L16.7104 22.1881Z" fill="#194595" mask="url(#path-2-outside-1_3768_8852)"/>
</svg>
