<svg width="71" height="70" viewBox="0 0 71 70" fill="none" xmlns="http://www.w3.org/2000/svg">
<path d="M46.4375 4.375H41.6862C40.785 1.82875 38.3525 0 35.5 0C32.6475 0 30.215 1.82875 29.3094 4.375H24.5625C23.355 4.375 22.375 5.355 22.375 6.5625V15.3125C22.375 16.52 23.355 17.5 24.5625 17.5H46.4375C47.645 17.5 48.625 16.52 48.625 15.3125V6.5625C48.625 5.355 47.645 4.375 46.4375 4.375Z" fill="#424BB3"/>
<path d="M57.375 8.75H53V15.3125C53 18.9306 50.0556 21.875 46.4375 21.875H24.5625C20.9444 21.875 18 18.9306 18 15.3125V8.75H13.625C11.2144 8.75 9.25 10.7144 9.25 13.125V65.625C9.25 68.0794 11.1706 70 13.625 70H57.375C59.8294 70 61.75 68.0794 61.75 65.625V13.125C61.75 10.6706 59.8294 8.75 57.375 8.75ZM34.8612 47.4863L26.1112 56.2363C25.6825 56.6606 25.1225 56.875 24.5625 56.875C24.0025 56.875 23.4425 56.6606 23.0138 56.2363L18.6388 51.8613C17.7856 51.0081 17.7856 49.6213 18.6388 48.7681C19.4919 47.915 20.8788 47.915 21.7319 48.7681L24.5625 51.5944L31.7638 44.3931C32.6169 43.54 34.0037 43.54 34.8569 44.3931C35.71 45.2463 35.7144 46.6287 34.8612 47.4863ZM34.8612 29.9862L26.1112 38.7362C25.6825 39.1606 25.1225 39.375 24.5625 39.375C24.0025 39.375 23.4425 39.1606 23.0138 38.7362L18.6388 34.3612C17.7856 33.5081 17.7856 32.1213 18.6388 31.2681C19.4919 30.415 20.8788 30.415 21.7319 31.2681L24.5625 34.0944L31.7638 26.8931C32.6169 26.04 34.0037 26.04 34.8569 26.8931C35.71 27.7463 35.7144 29.1287 34.8612 29.9862ZM50.8125 52.5H42.0625C40.855 52.5 39.875 51.52 39.875 50.3125C39.875 49.105 40.855 48.125 42.0625 48.125H50.8125C52.02 48.125 53 49.105 53 50.3125C53 51.52 52.02 52.5 50.8125 52.5ZM50.8125 35H42.0625C40.855 35 39.875 34.02 39.875 32.8125C39.875 31.605 40.855 30.625 42.0625 30.625H50.8125C52.02 30.625 53 31.605 53 32.8125C53 34.02 52.02 35 50.8125 35Z" fill="#3FAD79"/>
</svg>
