<svg width="51" height="50" viewBox="0 0 51 50" fill="none" xmlns="http://www.w3.org/2000/svg">
<rect x="0.5" width="50" height="50" rx="12" fill="#424BB3"/>
<path d="M16.6111 19.1429L23.3974 24.414L23.3996 24.4159C24.1532 24.9843 24.5302 25.2687 24.9431 25.3785C25.308 25.4756 25.6917 25.4756 26.0566 25.3785C26.4699 25.2686 26.848 24.9834 27.6029 24.414C27.6029 24.414 31.9556 20.9782 34.3889 19.1429M15.5 30.3431V21.6574C15.5 20.3772 15.5 19.7367 15.7422 19.2478C15.9553 18.8177 16.295 18.4683 16.7131 18.2491C17.1885 18 17.8112 18 19.0558 18H31.9447C33.1892 18 33.8106 18 34.286 18.2491C34.7041 18.4683 35.045 18.8177 35.258 19.2478C35.5 19.7362 35.5 20.376 35.5 21.6536V30.3469C35.5 31.6246 35.5 32.2634 35.258 32.7519C35.045 33.182 34.7041 33.532 34.286 33.7511C33.8111 34 33.19 34 31.9479 34H19.0521C17.81 34 17.188 34 16.7131 33.7511C16.295 33.532 15.9553 33.182 15.7422 32.7519C15.5 32.2629 15.5 31.6232 15.5 30.3431Z" stroke="white" stroke-width="2" stroke-linecap="round" stroke-linejoin="round"/>
</svg>
