<svg width="43" height="50" viewBox="0 0 43 50" fill="none" xmlns="http://www.w3.org/2000/svg">
<path fill-rule="evenodd" clip-rule="evenodd" d="M6.80426 49.1242H37.5588C38.8401 49.1242 40.0687 48.615 40.9752 47.7093C41.8817 46.8028 42.3909 45.5734 42.3909 44.292C42.3909 44.2796 42.3909 44.2672 42.3909 44.2548C42.3909 42.9734 41.8817 41.7448 40.9752 40.8383C40.0687 39.9318 38.8401 39.4227 37.5588 39.4227H35.9227V7.07091C35.9227 3.50619 33.0332 0.616699 29.4693 0.616699H1.96749C1.07495 0.616699 0.35083 1.34082 0.35083 2.23413V42.6707C0.35083 46.2347 3.24032 49.1242 6.80426 49.1242ZM37.5588 45.8909H10.0523V44.2548C10.0523 43.831 10.2207 43.4243 10.5203 43.1248C10.8199 42.8252 11.2266 42.6568 11.6504 42.6568H37.5588C37.9825 42.6568 38.3892 42.8252 38.6888 43.1248C38.9884 43.4243 39.1568 43.831 39.1568 44.2548V44.292C39.1568 44.7158 38.9884 45.1225 38.6888 45.4221C38.3892 45.7224 37.9825 45.8909 37.5588 45.8909ZM32.6894 39.4227V7.07091C32.6894 5.29204 31.2474 3.85079 29.4693 3.85079H3.58492V42.6707C3.58492 44.4488 5.02617 45.8909 6.80426 45.8909H6.81823V44.2556C6.81823 42.9734 7.32737 41.7448 8.23387 40.8383C9.14038 39.9318 10.369 39.4227 11.6504 39.4227H32.6894ZM8.43566 23.2538H18.1372C19.0289 23.2538 19.7538 22.5289 19.7538 21.6371C19.7538 20.7446 19.0289 20.0197 18.1372 20.0197H8.43566C7.54313 20.0197 6.81823 20.7446 6.81823 21.6371C6.81823 22.5289 7.54313 23.2538 8.43566 23.2538ZM8.43566 16.7864H27.8386C28.7304 16.7864 29.4553 16.0615 29.4553 15.1689C29.4553 14.2772 28.7304 13.5523 27.8386 13.5523H8.43566C7.54313 13.5523 6.81823 14.2772 6.81823 15.1689C6.81823 16.0615 7.54313 16.7864 8.43566 16.7864ZM8.43566 10.3182H27.8386C28.7304 10.3182 29.4553 9.59407 29.4553 8.70154C29.4553 7.809 28.7304 7.08488 27.8386 7.08488H8.43566C7.54313 7.08488 6.81823 7.809 6.81823 8.70154C6.81823 9.59407 7.54313 10.3182 8.43566 10.3182Z" fill="#3FAD79"/>
</svg>
