<svg width="42" height="42" viewBox="0 0 42 42" fill="none" xmlns="http://www.w3.org/2000/svg">
<path d="M23.5765 4.11186C22.4113 2.12938 19.5968 2.12938 18.4316 4.11186L0.432143 34.7369C-0.767568 36.7781 0.672731 39.375 3.00455 39.375H39.0036C41.3354 39.375 42.7757 36.7781 41.576 34.7369L23.5765 4.11186ZM21 13.125C22.4055 13.125 23.5037 14.3385 23.3638 15.737L22.4431 24.944C22.369 25.6854 21.7451 26.25 21 26.25C20.2549 26.25 19.631 25.6854 19.5569 24.944L18.6362 15.737C18.4963 14.3385 19.5945 13.125 21 13.125ZM21.004 28.875C22.4538 28.875 23.629 30.0503 23.629 31.5C23.629 32.9497 22.4538 34.125 21.004 34.125C19.5543 34.125 18.379 32.9497 18.379 31.5C18.379 30.0503 19.5543 28.875 21.004 28.875Z" fill="#E06E0E"/>
</svg>
