<svg width="26" height="25" viewBox="0 0 26 25" fill="none" xmlns="http://www.w3.org/2000/svg">
<path d="M8.95695 23.4667V19.6445C8.95695 18.6688 9.81743 17.8779 10.8789 17.8779H14.759C15.2688 17.8779 15.7576 18.064 16.118 18.3953C16.4785 18.7266 16.681 19.176 16.681 19.6445V23.4667C16.6777 23.8723 16.8508 24.2623 17.1617 24.5502C17.4726 24.8381 17.8957 25 18.337 25H20.9842C22.2205 25.0029 23.4073 24.5536 24.2827 23.751C25.158 22.9485 25.65 21.8587 25.65 20.7223V9.83357C25.65 8.91558 25.2073 8.0448 24.4412 7.45584L15.4359 0.844836C13.8694 -0.314298 11.625 -0.276872 10.1053 0.933724L1.30547 7.45584C0.5032 8.02744 0.0236956 8.90079 0 9.83357V20.7112C0 23.0798 2.08897 25 4.66583 25H7.25259C8.16916 25 8.91405 24.3203 8.92069 23.4778L8.95695 23.4667Z" fill="#3F3991"/>
</svg>
