<svg width="108" height="108" viewBox="0 0 108 108" fill="none" xmlns="http://www.w3.org/2000/svg">
<circle cx="54" cy="50" r="23" fill="#133BB7" fill-opacity="0.15"/>
<g filter="url(#filter0_d_2471_5427)">
<circle cx="54" cy="50" r="13" fill="#3FAD79"/>
<circle cx="54" cy="50" r="13" stroke="white" stroke-width="1.5"/>
</g>
<g clip-path="url(#clip0_2471_5427)">
<path d="M59.0283 47.9291C58.4158 45.2341 56.065 44.0208 54 44.0208C54 44.0208 54 44.0208 53.9942 44.0208C51.935 44.0208 49.5783 45.2283 48.9658 47.9233C48.2833 50.9333 50.1267 53.4824 51.795 55.0866C52.4133 55.6816 53.2067 55.9791 54 55.9791C54.7933 55.9791 55.5867 55.6816 56.1992 55.0866C57.8675 53.4824 59.7108 50.9391 59.0283 47.9291ZM54 50.8516C52.985 50.8516 52.1625 50.0291 52.1625 49.0141C52.1625 47.9991 52.985 47.1766 54 47.1766C55.015 47.1766 55.8375 47.9991 55.8375 49.0141C55.8375 50.0291 55.015 50.8516 54 50.8516Z" fill="white"/>
</g>
<defs>
<filter id="filter0_d_2471_5427" x="0.25" y="0.25" width="107.5" height="107.5" filterUnits="userSpaceOnUse" color-interpolation-filters="sRGB">
<feFlood flood-opacity="0" result="BackgroundImageFix"/>
<feColorMatrix in="SourceAlpha" type="matrix" values="0 0 0 0 0 0 0 0 0 0 0 0 0 0 0 0 0 0 127 0" result="hardAlpha"/>
<feOffset dy="4"/>
<feGaussianBlur stdDeviation="20"/>
<feComposite in2="hardAlpha" operator="out"/>
<feColorMatrix type="matrix" values="0 0 0 0 0.0980392 0 0 0 0 0.113725 0 0 0 0 0.192157 0 0 0 0.15 0"/>
<feBlend mode="normal" in2="BackgroundImageFix" result="effect1_dropShadow_2471_5427"/>
<feBlend mode="normal" in="SourceGraphic" in2="effect1_dropShadow_2471_5427" result="shape"/>
</filter>
<clipPath id="clip0_2471_5427">
<rect width="14" height="14" fill="white" transform="translate(47 43)"/>
</clipPath>
</defs>
</svg>
