<svg width="102" height="104" viewBox="0 0 102 104" fill="none" xmlns="http://www.w3.org/2000/svg">
<path d="M47.18 81.83C47.7212 81.83 48.16 81.3912 48.16 80.85C48.16 80.3088 47.7212 79.87 47.18 79.87C46.6387 79.87 46.2 80.3088 46.2 80.85C46.2 81.3912 46.6387 81.83 47.18 81.83Z" fill="#CFCFCF"/>
<path d="M18.71 8.04999V12.35" stroke="#BABABA" stroke-linecap="round" stroke-linejoin="round"/>
<path d="M16.55 10.2H20.8601" stroke="#BABABA" stroke-linecap="round" stroke-linejoin="round"/>
<path d="M54.1199 2.18998C54.6611 2.18998 55.0999 1.75122 55.0999 1.20998C55.0999 0.668741 54.6611 0.22998 54.1199 0.22998C53.5787 0.22998 53.1399 0.668741 53.1399 1.20998C53.1399 1.75122 53.5787 2.18998 54.1199 2.18998Z" fill="#CFCFCF"/>
<path d="M3.19995 78.5V82.8" stroke="#BABABA" stroke-linecap="round" stroke-linejoin="round"/>
<path d="M1.05005 80.65H5.35005" stroke="#BABABA" stroke-linecap="round" stroke-linejoin="round"/>
<path d="M47.5801 103.7C67.8545 103.7 84.2901 102.675 84.2901 101.41C84.2901 100.145 67.8545 99.12 47.5801 99.12C27.3057 99.12 10.8701 100.145 10.8701 101.41C10.8701 102.675 27.3057 103.7 47.5801 103.7Z" fill="#F2F2F2"/>
<path d="M77.0899 76.88H13.6799C13.2555 76.8797 12.8363 76.7872 12.4512 76.609C12.0661 76.4307 11.7243 76.1709 11.4495 75.8476C11.1746 75.5243 10.9733 75.1451 10.8594 74.7363C10.7456 74.3275 10.7218 73.8989 10.7899 73.48L18.8999 24.3C19.0095 23.6155 19.3598 22.9926 19.8878 22.5435C20.4157 22.0943 21.0867 21.8484 21.7799 21.85H85.1899C85.6139 21.85 86.0329 21.9424 86.4176 22.1208C86.8024 22.2991 87.1436 22.5591 87.4177 22.8827C87.6918 23.2062 87.8921 23.5856 88.0047 23.9944C88.1174 24.4033 88.1396 24.8317 88.0699 25.25L79.9999 74.43C79.8876 75.1187 79.5324 75.7444 78.9986 76.1939C78.4648 76.6433 77.7877 76.8867 77.0899 76.88Z" fill="#D2D2D2"/>
<path d="M77.8713 20.5639L40.2325 3.75874C39.123 3.26339 37.8221 3.76122 37.3267 4.87068L25.3976 31.5885C24.9022 32.698 25.4001 33.999 26.5095 34.4943L64.1483 51.2994C65.2578 51.7948 66.5587 51.297 67.0541 50.1875L78.9832 23.4696C79.4786 22.3602 78.9807 21.0592 77.8713 20.5639Z" fill="white" stroke="#BABABA" stroke-linecap="round" stroke-linejoin="round"/>
<path d="M45.75 25.74C46.7407 24.3499 48.1816 23.345 49.8285 22.8957C51.4754 22.4464 53.2269 22.5803 54.7864 23.2747C56.3458 23.9691 57.6172 25.1813 58.3852 26.7058C59.1531 28.2304 59.3703 29.9736 59 31.64" stroke="#BABABA" stroke-width="0.68" stroke-linecap="round" stroke-linejoin="round"/>
<path d="M63.75 24.23C64.3188 24.23 64.78 23.7688 64.78 23.2C64.78 22.6311 64.3188 22.17 63.75 22.17C63.1811 22.17 62.72 22.6311 62.72 23.2C62.72 23.7688 63.1811 24.23 63.75 24.23Z" fill="#BABABA"/>
<path d="M48.83 17.57C49.3989 17.57 49.86 17.1089 49.86 16.54C49.86 15.9712 49.3989 15.51 48.83 15.51C48.2612 15.51 47.8 15.9712 47.8 16.54C47.8 17.1089 48.2612 17.57 48.83 17.57Z" fill="#BABABA"/>
<path d="M76.81 76.86H13.09C12.3147 76.8574 11.572 76.5475 11.0247 75.9983C10.4773 75.4491 10.17 74.7054 10.17 73.93V29C10.1607 28.6102 10.2293 28.2225 10.3717 27.8596C10.5142 27.4966 10.7276 27.1657 10.9996 26.8863C11.2715 26.607 11.5965 26.3846 11.9554 26.2324C12.3144 26.0802 12.7001 26.0012 13.09 26H36.3C36.8386 26.002 37.3662 26.1524 37.8249 26.4346C38.2836 26.7169 38.6556 27.1201 38.9 27.6L42.21 34.08C42.4536 34.5606 42.8254 34.9645 43.2843 35.2468C43.7432 35.5292 44.2712 35.6791 44.81 35.68H76.81C77.5845 35.68 78.3272 35.9876 78.8748 36.5352C79.4224 37.0829 79.73 37.8256 79.73 38.6V73.93C79.73 74.7054 79.4227 75.4491 78.8754 75.9983C78.3281 76.5475 77.5854 76.8574 76.81 76.86Z" fill="white" stroke="#BABABA" stroke-linecap="round" stroke-linejoin="round"/>
<path d="M66.9999 37.21C63.3188 37.208 59.7197 38.2978 56.658 40.3415C53.5963 42.3852 51.2094 45.291 49.7994 48.6914C48.3893 52.0917 48.0193 55.8339 48.7363 59.4445C49.4532 63.0552 51.2248 66.3721 53.8271 68.9757C56.4294 71.5794 59.7453 73.3528 63.3556 74.0717C66.9658 74.7906 70.7082 74.4226 74.1093 73.0144C77.5104 71.6061 80.4175 69.2208 82.4628 66.1602C84.5082 63.0996 85.5999 59.5012 85.5999 55.82C85.5999 50.8861 83.6406 46.1541 80.1527 42.6643C76.6648 39.1745 71.9338 37.2127 66.9999 37.21Z" fill="white" stroke="#BABABA" stroke-linecap="round" stroke-linejoin="round"/>
<path d="M80.24 69.32L85.2 74.28" stroke="#BABABA" stroke-linecap="round" stroke-linejoin="round"/>
<path d="M84.6393 71.8701L83.0984 73.4821C82.4076 74.2046 82.4334 75.3504 83.156 76.0411L96.5287 88.8248C97.2513 89.5155 98.397 89.4897 99.0877 88.7672L100.629 87.1552C101.319 86.4326 101.294 85.2869 100.571 84.5961L87.1984 71.8125C86.4758 71.1217 85.3301 71.1475 84.6393 71.8701Z" fill="#D2D2D2"/>
<path d="M94.54 1.21002V5.52002" stroke="#BABABA" stroke-linecap="round" stroke-linejoin="round"/>
<path d="M92.3799 3.37H96.6899" stroke="#BABABA" stroke-linecap="round" stroke-linejoin="round"/>
</svg>
