<svg width="21" height="20" viewBox="0 0 21 20" fill="none" xmlns="http://www.w3.org/2000/svg">
<path d="M3.1416 6.19995L10.4999 10.4583L17.8082 6.22492" stroke="#3FAD79" stroke-width="1.5" stroke-linecap="round" stroke-linejoin="round"/>
<path d="M10.5 18.0083V10.45" stroke="#3FAD79" stroke-width="1.5" stroke-linecap="round" stroke-linejoin="round"/>
<path d="M8.77471 2.06675L4.32471 4.54177C3.31638 5.10011 2.49139 6.50009 2.49139 7.65009V12.3584C2.49139 13.5084 3.31638 14.9084 4.32471 15.4668L8.77471 17.9418C9.72471 18.4668 11.283 18.4668 12.233 17.9418L16.6831 15.4668C17.6914 14.9084 18.5164 13.5084 18.5164 12.3584V7.65009C18.5164 6.50009 17.6914 5.10011 16.6831 4.54177L12.233 2.06675C11.2747 1.53341 9.72471 1.53341 8.77471 2.06675Z" stroke="#3FAD79" stroke-width="1.5" stroke-linecap="round" stroke-linejoin="round"/>
<path d="M14.6664 11.0334V7.98345L6.75812 3.41675" stroke="#3FAD79" stroke-width="1.5" stroke-linecap="round" stroke-linejoin="round"/>
</svg>
