<svg width="375" height="207" viewBox="0 0 375 207" fill="none" xmlns="http://www.w3.org/2000/svg">
<g clip-path="url(#clip0_6372_12953)">
<rect width="375" height="316" fill="#3FAD79"/>
<path fill-rule="evenodd" clip-rule="evenodd" d="M-25.2356 63.5442C-25.2356 81.6453 -20.1617 98.5613 -11.3587 112.948C-6.63828 122.588 -3.90589 128.13 1.93352 139.763C2.97184 141.834 3.97783 143.922 4.9839 146.011C7.48961 151.212 9.99586 156.414 13.0035 161.35C18.0658 169.666 25.61 173.629 35.3997 172.522C44.0272 171.55 50.7637 167.451 54.6441 159.426C57.9625 152.57 61.3047 145.731 64.6478 138.89C67.3771 133.305 70.107 127.719 72.825 122.121C75.3423 116.954 77.822 111.777 80.303 106.597L80.3042 106.595L80.3069 106.589C81.4161 104.274 82.5257 101.957 83.6389 99.6411V99.6217L83.3435 99.3302L83.3429 99.3307L83.3424 99.3312C82.8306 99.7972 82.3188 100.263 81.8071 100.749C72.8985 109.128 60.174 111.386 49.2266 107.176C32.8072 99.5142 21.4287 82.8575 21.4287 63.5432C21.4287 36.966 42.9738 15.4209 69.551 15.4209C96.1283 15.4209 117.673 36.966 117.673 63.5432C117.673 71.7512 115.618 79.4792 111.995 86.2409C110.611 88.4307 109.081 90.5075 107.356 92.3388C102.246 103.067 98.8954 110.471 95.6915 117.55C91.8151 126.114 88.1539 134.204 81.854 147.131C77.8678 155.292 73.0231 163.765 68.2711 171.558C61.575 182.557 48.2418 187.901 35.537 185.045C29.1158 183.587 23.8533 180.342 19.2976 175.795L19.2779 175.814C19.219 175.853 19.1405 175.911 19.0816 175.969C19.0667 176.603 19.3456 177.114 19.6269 177.629C19.7164 177.793 19.8061 177.958 19.8867 178.126C23.1033 184.782 26.3273 191.437 29.5517 198.094C35.441 210.251 41.3317 222.412 47.1814 234.58C51.6193 243.791 58.8848 248.941 69.194 248.999C79.5817 249.058 87.1024 244.102 91.5992 234.794C94.0281 229.768 96.4569 224.741 98.886 219.713C106.394 204.173 113.905 188.628 121.427 173.093C127.861 159.803 133.228 149.018 138.578 138.266C144.071 127.228 149.546 116.224 156.141 102.58C156.782 101.254 157.37 99.6972 157.888 97.981C162.052 87.3068 164.337 75.6924 164.337 63.5442C164.337 11.1951 121.9 -31.2422 69.5508 -31.2422C17.2017 -31.2422 -25.2356 11.1951 -25.2356 63.5442ZM72.6154 68.5299C65.897 68.4905 60.2228 74.0373 60.1637 80.7446H60.1834C60.1046 87.7273 65.5029 93.3527 72.3395 93.4708C79.4717 93.5888 85.0474 88.1797 85.1065 81.138C85.1459 74.0177 79.7869 68.5889 72.6154 68.5299Z" fill="white" fill-opacity="0.1"/>
</g>
<defs>
<clipPath id="clip0_6372_12953">
<rect width="375" height="207" fill="white"/>
</clipPath>
</defs>
</svg>
