<svg width="20" height="20" viewBox="0 0 20 20" fill="none" xmlns="http://www.w3.org/2000/svg">
<path d="M12.5 1.66675V10.0001C12.5 10.9167 11.75 11.6667 10.8334 11.6667H1.66669V5.00008C1.66669 3.15841 3.15835 1.66675 5.00002 1.66675H12.5Z" stroke="#3FAD79" stroke-width="1.5" stroke-linecap="round" stroke-linejoin="round"/>
<path d="M18.3334 11.6667V14.1667C18.3334 15.5501 17.2167 16.6667 15.8334 16.6667H15C15 15.7501 14.25 15.0001 13.3334 15.0001C12.4167 15.0001 11.6667 15.7501 11.6667 16.6667H8.33335C8.33335 15.7501 7.58335 15.0001 6.66669 15.0001C5.75002 15.0001 5.00002 15.7501 5.00002 16.6667H4.16669C2.78335 16.6667 1.66669 15.5501 1.66669 14.1667V11.6667H10.8334C11.75 11.6667 12.5 10.9167 12.5 10.0001V4.16675H14.0334C14.6334 4.16675 15.1833 4.49176 15.4833 5.00842L16.9084 7.50008H15.8334C15.375 7.50008 15 7.87508 15 8.33341V10.8334C15 11.2917 15.375 11.6667 15.8334 11.6667H18.3334Z" stroke="#3FAD79" stroke-width="1.5" stroke-linecap="round" stroke-linejoin="round"/>
<path d="M6.66667 18.3333C7.58714 18.3333 8.33333 17.5871 8.33333 16.6667C8.33333 15.7462 7.58714 15 6.66667 15C5.74619 15 5 15.7462 5 16.6667C5 17.5871 5.74619 18.3333 6.66667 18.3333Z" stroke="#3FAD79" stroke-width="1.5" stroke-linecap="round" stroke-linejoin="round"/>
<path d="M13.3334 18.3333C14.2538 18.3333 15 17.5871 15 16.6667C15 15.7462 14.2538 15 13.3334 15C12.4129 15 11.6667 15.7462 11.6667 16.6667C11.6667 17.5871 12.4129 18.3333 13.3334 18.3333Z" stroke="#3FAD79" stroke-width="1.5" stroke-linecap="round" stroke-linejoin="round"/>
<path d="M18.3333 10V11.6667H15.8333C15.375 11.6667 15 11.2917 15 10.8333V8.33333C15 7.875 15.375 7.5 15.8333 7.5H16.9083L18.3333 10Z" stroke="#3FAD79" stroke-width="1.5" stroke-linecap="round" stroke-linejoin="round"/>
</svg>
