<svg width="49" height="49" viewBox="0 0 49 49" fill="none" xmlns="http://www.w3.org/2000/svg">
<path d="M3.5 24.5C3.5 21.7422 4.04318 19.0115 5.09853 16.4636C6.15388 13.9158 7.70073 11.6008 9.65076 9.65075C11.6008 7.70072 13.9158 6.15388 16.4637 5.09853C19.0115 4.04318 21.7422 3.5 24.5 3.5C27.2578 3.5 29.9885 4.04318 32.5364 5.09853C35.0842 6.15388 37.3992 7.70073 39.3492 9.65076C41.2993 11.6008 42.8461 13.9158 43.9015 16.4636C44.9568 19.0115 45.5 21.7422 45.5 24.5" stroke="#3FAD79" stroke-width="6" stroke-linecap="round"/>
<path d="M34.5 24.5C34.5 25.8132 34.2413 27.1136 33.7388 28.3268C33.2362 29.5401 32.4997 30.6425 31.5711 31.5711C30.6425 32.4997 29.5401 33.2362 28.3268 33.7388C27.1136 34.2413 25.8132 34.5 24.5 34.5C23.1868 34.5 21.8864 34.2413 20.6732 33.7388C19.4599 33.2362 18.3575 32.4997 17.4289 31.5711C16.5003 30.6425 15.7638 29.5401 15.2612 28.3268C14.7587 27.1136 14.5 25.8132 14.5 24.5" stroke="#424BB3" stroke-width="6" stroke-linecap="round"/>
</svg>
