<svg width="55" height="54" viewBox="0 0 55 54" fill="none" xmlns="http://www.w3.org/2000/svg">
<path d="M27.5 4.77783C15.2555 4.77783 5.27777 14.7556 5.27777 27.0001C5.27777 39.2445 15.2555 49.2223 27.5 49.2223C39.7444 49.2223 49.7222 39.2445 49.7222 27.0001C49.7222 14.7556 39.7444 4.77783 27.5 4.77783ZM38.1222 21.8889L25.5222 34.4889C25.2111 34.8001 24.7889 34.9778 24.3444 34.9778C23.9 34.9778 23.4778 34.8001 23.1667 34.4889L16.8778 28.2001C16.2333 27.5556 16.2333 26.4889 16.8778 25.8445C17.5222 25.2001 18.5889 25.2001 19.2333 25.8445L24.3444 30.9556L35.7667 19.5334C36.4111 18.8889 37.4778 18.8889 38.1222 19.5334C38.7667 20.1778 38.7667 21.2223 38.1222 21.8889Z" fill="#3FAD79"/>
</svg>
