<svg width="50" height="50" viewBox="0 0 50 50" fill="none" xmlns="http://www.w3.org/2000/svg">
<rect width="50" height="50" rx="12" fill="#FDBC58"/>
<path fill-rule="evenodd" clip-rule="evenodd" d="M24.9552 10.3915C22.1125 10.2968 19.2405 11.0724 16.761 12.7275C13.9761 14.5884 12.0298 17.3364 11.1334 20.4084C10.8858 20.3782 10.5894 20.3915 10.2374 20.4911C8.92318 20.864 7.93474 21.9408 7.49029 22.8893C6.91385 24.1253 6.67074 25.76 6.92718 27.4475C7.18185 29.1297 7.89251 30.5164 8.7814 31.3773C9.67296 32.2386 10.6796 32.5186 11.6796 32.3084C13.1685 31.9906 13.9067 31.7528 13.6983 30.3657L12.689 23.6417C12.8925 20.0026 14.7765 16.5768 17.9276 14.4702C22.1454 11.6528 27.6752 11.8333 31.6983 14.9217C34.497 17.0675 36.1218 20.2826 36.3094 23.6577L35.6036 28.3613C34.0294 32.6693 30.1267 35.6533 25.6107 36.0768H22.6036C21.8276 36.0768 21.2027 36.7017 21.2027 37.4768V38.2155C21.2027 38.9911 21.8276 39.616 22.6036 39.616H26.3952C27.1707 39.616 27.793 38.9911 27.793 38.2155V37.8293C31.1983 36.9982 34.1707 34.9053 36.1063 31.9866L37.321 32.3088C38.3094 32.5653 39.3281 32.2386 40.2192 31.3777C41.1081 30.5164 41.8183 29.1302 42.0734 27.448C42.3307 25.7604 42.0805 24.1284 41.5107 22.8897C40.9387 21.6511 40.0867 20.8644 39.1032 20.5822C38.6912 20.4635 38.2441 20.42 37.8605 20.4084C37.0498 17.6306 35.381 15.1044 32.9756 13.26C30.6107 11.4453 27.7978 10.4848 24.9552 10.3915Z" fill="white"/>
<path fill-rule="evenodd" clip-rule="evenodd" d="M29.393 22.4884C30.3952 22.4884 31.2076 23.3009 31.2099 24.3058C31.2076 25.308 30.3952 26.1227 29.393 26.1227C28.3881 26.1227 27.5734 25.308 27.5734 24.3058C27.5734 23.3013 28.3885 22.4884 29.393 22.4884ZM24.4996 22.4884C25.5041 22.4884 26.3165 23.3009 26.3165 24.3058C26.3165 25.308 25.5041 26.1227 24.4996 26.1227C23.4943 26.1227 22.6819 25.308 22.6819 24.3058C22.6819 23.3013 23.4943 22.4884 24.4996 22.4884ZM19.6081 22.4884C20.6103 22.4884 21.425 23.3009 21.425 24.3058C21.425 25.308 20.6103 26.1227 19.6081 26.1227C18.6036 26.1227 17.7907 25.308 17.7907 24.3058C17.7907 23.3013 18.6036 22.4884 19.6081 22.4884ZM24.4996 14.6831C19.1707 14.6831 14.8765 18.836 14.8765 24.3058C14.8765 26.9329 15.8699 29.2547 17.4881 30.9582L16.9139 33.5324C16.7245 34.3796 17.3121 34.9493 18.0734 34.5253L20.5872 33.1231C21.7819 33.6418 23.1032 33.9284 24.4996 33.9284C29.8303 33.9284 34.1219 29.7782 34.1219 24.3058C34.1219 18.836 29.8303 14.6831 24.4996 14.6831Z" fill="white"/>
</svg>
