<svg width="20" height="20" viewBox="0 0 20 20" fill="none" xmlns="http://www.w3.org/2000/svg">
<path d="M10 1.6665C5.40835 1.6665 1.66669 5.40817 1.66669 9.99984C1.66669 14.5915 5.40835 18.3332 10 18.3332C14.5917 18.3332 18.3334 14.5915 18.3334 9.99984C18.3334 5.40817 14.5917 1.6665 10 1.6665ZM13.9834 8.08317L9.25835 12.8082C9.14169 12.9248 8.98335 12.9915 8.81669 12.9915C8.65002 12.9915 8.49169 12.9248 8.37502 12.8082L6.01669 10.4498C5.77502 10.2082 5.77502 9.80817 6.01669 9.5665C6.25835 9.32484 6.65835 9.32484 6.90002 9.5665L8.81669 11.4832L13.1 7.19984C13.3417 6.95817 13.7417 6.95817 13.9834 7.19984C14.225 7.4415 14.225 7.83317 13.9834 8.08317Z" fill="#00D261"/>
</svg>
